<svg width="27" height="27" viewBox="0 0 27 27" fill="none" xmlns="http://www.w3.org/2000/svg">
<g id="Icon">
<path id="Vector" d="M4.65518 6.6918V15.4203C4.65518 15.9023 5.04596 16.2931 5.52803 16.2931H8.43751C8.91957 16.2931 9.31035 15.9023 9.31035 15.4203V6.6918C9.31035 6.20974 8.91957 5.81896 8.43751 5.81896H5.52803C5.04596 5.81896 4.65518 6.20974 4.65518 6.6918ZM6.10992 13.9655C6.10992 13.4834 6.5007 13.0927 6.98277 13.0927C7.46483 13.0927 7.85561 13.4834 7.85561 13.9655C7.85561 14.4476 7.46483 14.8384 6.98277 14.8384C6.5007 14.8384 6.10992 14.4476 6.10992 13.9655ZM16.0022 23.2759C15.2681 23.2759 14.9298 21.8468 14.7681 21.1739C14.5788 20.386 14.383 19.5712 13.8446 19.0318C12.6638 17.8489 12.0443 16.3417 10.6036 14.9181C10.5626 14.8775 10.53 14.8293 10.5078 14.7761C10.4856 14.7229 10.4742 14.6658 10.4742 14.6082V6.83368C10.4742 6.59579 10.6649 6.40169 10.9027 6.39733C11.4785 6.38678 12.2372 6.06714 12.8176 5.80896C13.9724 5.29518 15.4097 4.65578 17.1658 4.65517H17.2692C18.8249 4.65517 20.6647 4.67019 21.407 5.73666C21.7122 6.17515 21.7869 6.71984 21.6306 7.35986C22.2238 7.98005 22.5421 9.13693 22.2264 10.0787C22.8644 10.9308 22.9226 12.1201 22.5649 12.9688L22.5689 12.9728C23.0014 13.4074 23.2789 14.1097 23.2759 14.7621C23.2702 15.8659 22.3246 16.875 21.11 16.875H17.4105C17.6762 17.9057 18.6207 18.771 18.6207 20.3136C18.6207 22.9849 16.875 23.2759 16.0022 23.2759Z" fill="#2B2D42"/>
</g>
</svg>
