<svg width="27" height="27" viewBox="0 0 27 27" fill="none" xmlns="http://www.w3.org/2000/svg">
<g id="Icon">
<path id="Vector" d="M8.0625 12.75H4.9375C4.41973 12.75 4 13.1697 4 13.6875V23.0625C4 23.5803 4.41973 24 4.9375 24H8.0625C8.58028 24 9 23.5803 9 23.0625V13.6875C9 13.1697 8.58028 12.75 8.0625 12.75ZM6.5 22.4375C5.98223 22.4375 5.5625 22.0178 5.5625 21.5C5.5625 20.9822 5.98223 20.5625 6.5 20.5625C7.01778 20.5625 7.4375 20.9822 7.4375 21.5C7.4375 22.0178 7.01778 22.4375 6.5 22.4375ZM19 7.18172C19 8.83859 17.9856 9.76797 17.7001 10.875H21.6737C22.9783 10.875 23.9939 11.9588 24 13.1445C24.0033 13.8452 23.7052 14.5995 23.2406 15.0662L23.2363 15.0705C23.6206 15.9821 23.5581 17.2595 22.8727 18.1748C23.2118 19.1863 22.8701 20.4288 22.2328 21.095C22.4007 21.7824 22.3205 22.3674 21.9927 22.8384C21.1954 23.9839 19.2194 24 17.5484 24L17.4373 24C15.5511 23.9993 14.0074 23.3125 12.767 22.7607C12.1436 22.4834 11.3286 22.1401 10.7103 22.1287C10.4548 22.1241 10.25 21.9156 10.25 21.6601V13.3097C10.25 13.1847 10.3001 13.0647 10.389 12.9768C11.9364 11.4478 12.6018 9.82891 13.8701 8.55844C14.4484 7.97906 14.6587 7.10391 14.862 6.25758C15.0357 5.53488 15.3991 4 16.1875 4C17.125 4 19 4.3125 19 7.18172Z" fill="#2B2D42"/>
</g>
</svg>
